<?xml version="1.0" encoding="utf-8"?>
<!-- Generator: Adobe Illustrator 28.1.0, SVG Export Plug-In . SVG Version: 6.00 Build 0)  -->
<svg version="1.1" id="Layer_1" xmlns="http://www.w3.org/2000/svg" xmlns:xlink="http://www.w3.org/1999/xlink" x="0px" y="0px"
	 viewBox="0 0 70 70" style="enable-background:new 0 0 70 70;" xml:space="preserve">
<style type="text/css">
	.st0{fill:#FFFFFF;}
	.st1{fill:#231F20;}
	.st2{fill:url(#SVGID_1_);}
	.st3{fill:url(#SVGID_00000161616105283034363960000005373620697382829198_);}
	.st4{fill:url(#SVGID_00000114035319212577995170000000869969458236012967_);}
</style>
<g>
	<g>
		<rect x="0.7" y="0.7" class="st0" width="20.2" height="68.5"/>
		<path class="st1" d="M20.7,1v68H1V1H20.7 M21.2,0.5H0.5v69h20.7V0.5L21.2,0.5z"/>
	</g>
	<g>
		<rect x="12.8" y="15.6" class="st0" width="20.2" height="53.7"/>
		<path class="st1" d="M32.8,15.8V69H13.1V15.8H32.8 M33.3,15.3H12.6v54.2h20.7V15.3L33.3,15.3z"/>
	</g>
	<g>
		
			<linearGradient id="SVGID_1_" gradientUnits="userSpaceOnUse" x1="35" y1="2.7464" x2="35" y2="47.6851" gradientTransform="matrix(1 0 0 -1 0 72)">
			<stop  offset="0" style="stop-color:#06456A"/>
			<stop  offset="6.560000e-02" style="stop-color:#135075"/>
			<stop  offset="0.1804" style="stop-color:#256084"/>
			<stop  offset="0.3096" style="stop-color:#326E91"/>
			<stop  offset="0.4592" style="stop-color:#3A789B"/>
			<stop  offset="0.6476" style="stop-color:#3F7EA1"/>
			<stop  offset="1" style="stop-color:#4080A3"/>
		</linearGradient>
		<rect x="24.9" y="24.3" class="st2" width="20.2" height="44.9"/>
		<g>
			<path class="st1" d="M44.9,24.6V69H25.1V24.6H44.9 M45.3,24.1H24.6v45.4h20.7V24.1L45.3,24.1z"/>
		</g>
	</g>
	<path class="st0" d="M53,24.2c2.2-1.3,3.7-1.4,4.3-1.4v-0.9c-0.6-0.2-1-0.6-1-1.2v-3.3c0-0.6,0.4-1.1,1-1.3v-3
		c-2.8,0.2-5.4,2.6-6.8,6.3c-0.5,1.2-0.6,2.7-0.6,4.3c0,0.5,0,1,0,1.6C50.5,25.1,51.5,25,53,24.2z"/>
	<path class="st0" d="M58,16c0.6,0.1,1,0.6,1,1.3v3.3c0,0.6-0.4,1.1-1,1.2v0.9c0.7,0,2.1,0.3,4.1,1.4c2.3,1.3,3.4,0.9,3.4,0.9
		l0.1,0.2c0-1.1,0-2.2-0.1-3.2c-0.1-1.2-0.2-2.3-0.4-2.8C63.8,15.4,61,13,58,12.9L58,16L58,16z"/>
	<path class="st0" d="M57.2,17.2v3.3c0,0.3,0.2,0.5,0.5,0.5c0.3,0,0.5-0.2,0.5-0.5v-3.3c0-0.3-0.2-0.5-0.5-0.5
		C57.4,16.7,57.2,16.9,57.2,17.2z"/>
	<path class="st0" d="M61.5,25.3c-2.5-1.4-3.8-1.3-3.8-1.2l-0.1,0l-0.1,0c0,0-1.3-0.2-3.8,1.2c-1.7,1-2.9,1.1-3.7,1.1
		c0,0.6,0,1.2,0,1.9c0,3.5,0.2,7.5,1.6,9.4c1.7,2.3,3.9,3.7,6.3,3.7c2.6,0,4.9-1.6,6.7-4.3c0.9-1.4,1.2-4,1.2-6.6
		c0-1.4-0.1-2.8-0.1-4.1c-0.2,0-0.4,0.1-0.7,0.1C64.2,26.4,63,26.2,61.5,25.3z"/>
	<path d="M67.8,2.1c-0.3,1.4-0.6,2.7-1.2,3.6c-0.6,0.9-1.1,1.4-1.9,1.4c-0.4,0-0.8-0.1-1.3-0.4c-0.7-0.4-1.5-0.7-2.4-0.7
		c-0.9,0-1.8,0.3-2.5,1.2c-0.7,0.9-1,2.1-1,4c0,0.3,0,0.6,0,0.9c-3.5,0.4-6.3,3.2-7.8,7.1c-0.6,1.5-0.7,3.1-0.7,4.8
		c0,0.8,0,1.7,0,2.5c0,0.7,0,1.5,0,2.3c0,3.6,0.1,7.7,1.9,10.2c1.9,2.6,4.4,4.3,7.4,4.3c3.1,0,5.9-2,7.8-4.9
		c1.2-1.9,1.4-4.7,1.4-7.3c0-1.6-0.1-3.2-0.1-4.5v-0.2c0-1.2,0-2.6-0.1-3.9c-0.1-1.3-0.2-2.4-0.5-3.2c-1.4-4-4.4-6.8-8-7.2
		c0-0.3,0-0.6,0-0.8c0-1.7,0.3-2.7,0.7-3.2s0.8-0.7,1.4-0.7c0.6,0,1.3,0.2,1.8,0.5c0.7,0.4,1.3,0.6,2,0.6c1.4,0,2.4-0.9,3-2.1
		c1-1.7,1.7-5.9,1.7-5.9l-1.4,0C68,1.3,68,1.2,67.8,2.1z M50.4,24c0-1.6,0.1-3.1,0.6-4.3c1.4-3.6,4-6,6.8-6.3v3
		c-0.6,0.2-1,0.6-1,1.3v3.3c0,0.6,0.4,1.1,1,1.2v0.9c-0.6,0-2.1,0.1-4.3,1.4c-1.5,0.9-2.5,1-3,0.9C50.4,25.1,50.4,24.5,50.4,24z
		 M58.2,17.2c0.3,0,0.5,0.2,0.5,0.5v3.3c0,0.3-0.2,0.5-0.5,0.5c-0.3,0-0.5-0.2-0.5-0.5v-3.3C57.6,17.4,57.9,17.2,58.2,17.2z
		 M66.1,31c0,2.6-0.2,5.2-1.2,6.6c-1.7,2.7-4.1,4.3-6.7,4.3c-2.4,0-4.6-1.4-6.3-3.7c-1.4-1.9-1.6-5.9-1.6-9.4c0-0.7,0-1.3,0-1.9
		c0.8,0,2-0.1,3.7-1.1c2.5-1.4,3.8-1.2,3.8-1.2l0.1,0l0.1,0c0,0,1.3-0.2,3.8,1.2c1.6,0.9,2.7,1.1,3.5,1.1c0.3,0,0.5,0,0.7-0.1
		C66.1,28.1,66.1,29.6,66.1,31z M65.6,19.7c0.2,0.5,0.3,1.6,0.4,2.8c0,1,0.1,2.1,0.1,3.2L66,25.5c0,0-1.1,0.5-3.4-0.9
		c-2-1.1-3.4-1.4-4.1-1.4v-0.9c0.6-0.1,1-0.6,1-1.2v-3.3c0-0.6-0.4-1.1-1-1.3v-3.1C61.4,13.5,64.3,15.9,65.6,19.7z"/>
	<g>
		
			<linearGradient id="SVGID_00000042736649629259827690000001457667896240052617_" gradientUnits="userSpaceOnUse" x1="47.075" y1="2.7464" x2="47.075" y2="26.167" gradientTransform="matrix(1 0 0 -1 0 72)">
			<stop  offset="0" style="stop-color:#06456A"/>
			<stop  offset="6.560000e-02" style="stop-color:#135075"/>
			<stop  offset="0.1804" style="stop-color:#256084"/>
			<stop  offset="0.3096" style="stop-color:#326E91"/>
			<stop  offset="0.4592" style="stop-color:#3A789B"/>
			<stop  offset="0.6476" style="stop-color:#3F7EA1"/>
			<stop  offset="1" style="stop-color:#4080A3"/>
		</linearGradient>
		
			<rect x="37" y="45.8" style="fill:url(#SVGID_00000042736649629259827690000001457667896240052617_);" width="20.2" height="23.4"/>
		<g>
			<path class="st1" d="M56.9,46.1V69H37.2V46.1H56.9 M57.4,45.6H36.7v23.9h20.7V45.6L57.4,45.6z"/>
		</g>
	</g>
	<g>
		
			<linearGradient id="SVGID_00000105427069474558539380000005826369619659116166_" gradientUnits="userSpaceOnUse" x1="59.15" y1="2.7464" x2="59.15" y2="18.6164" gradientTransform="matrix(1 0 0 -1 0 72)">
			<stop  offset="0" style="stop-color:#06456A"/>
			<stop  offset="6.560000e-02" style="stop-color:#135075"/>
			<stop  offset="0.1804" style="stop-color:#256084"/>
			<stop  offset="0.3096" style="stop-color:#326E91"/>
			<stop  offset="0.4592" style="stop-color:#3A789B"/>
			<stop  offset="0.6476" style="stop-color:#3F7EA1"/>
			<stop  offset="1" style="stop-color:#4080A3"/>
		</linearGradient>
		
			<rect x="49" y="53.4" style="fill:url(#SVGID_00000105427069474558539380000005826369619659116166_);" width="20.2" height="15.9"/>
		<path class="st1" d="M69,53.6V69H49.3V53.6H69 M69.5,53.1H48.8v16.4h20.7V53.1L69.5,53.1z"/>
	</g>
</g>
</svg>
