<?xml version="1.0" encoding="utf-8"?>
<!-- Generator: Adobe Illustrator 28.1.0, SVG Export Plug-In . SVG Version: 6.00 Build 0)  -->
<svg version="1.1" id="Layer_1" xmlns="http://www.w3.org/2000/svg" xmlns:xlink="http://www.w3.org/1999/xlink" x="0px" y="0px"
	 viewBox="0 0 70 70" style="enable-background:new 0 0 70 70;" xml:space="preserve">
<style type="text/css">
	.st0{fill:url(#SVGID_1_);stroke:#3668B2;stroke-width:0.4107;stroke-miterlimit:10;}
	.st1{fill:#FCB918;}
	.st2{fill:#E37125;}
	.st3{fill:#06456A;}
	.st4{fill:#FFFFFF;}
</style>
<g>
	<g>
		
			<linearGradient id="SVGID_1_" gradientUnits="userSpaceOnUse" x1="35" y1="3" x2="35" y2="72" gradientTransform="matrix(1 0 0 -1 0 72.5)">
			<stop  offset="0" style="stop-color:#06456A"/>
			<stop  offset="6.560000e-02" style="stop-color:#135075"/>
			<stop  offset="0.1804" style="stop-color:#256084"/>
			<stop  offset="0.3096" style="stop-color:#326E91"/>
			<stop  offset="0.4592" style="stop-color:#3A789B"/>
			<stop  offset="0.6476" style="stop-color:#3F7EA1"/>
			<stop  offset="1" style="stop-color:#4080A3"/>
		</linearGradient>
		<path class="st0" d="M69.5,35c0,19.1-15.4,34.5-34.5,34.5C16,69.5,0.5,54.1,0.5,35C0.5,16,16,0.5,35,0.5C54.1,0.5,69.5,16,69.5,35
			z"/>
		<g>
			<path class="st1" d="M40.2,0.9c-1.7-0.3-3.4-0.4-5.2-0.4c-5.1,0-9.9,1.1-14.2,3.1c-5.8,8.2-10,24.8,34.7,37.5
				C55.6,41.1,10.5,25.4,40.2,0.9z"/>
			<path class="st2" d="M13.1,8.4C9,11.7,5.7,16,3.5,20.9c6.1,5.6,17.3,11.3,37.1,16.4C40.6,37.3,7.8,26.3,13.1,8.4z"/>
			<path class="st3" d="M64,46.3C36,34.6,14.9,32.5,0.5,33.5c0,0.5,0,1,0,1.5c0,3.1,0.4,6.1,1.2,9C30.1,35.2,64,46.3,64,46.3z"/>
		</g>
	</g>
	<g>
		<g>
			<path class="st4" d="M61.2,18.3l-5.2,0c-0.2,0-0.4-0.1-0.5-0.2c-0.1-0.1-0.2-0.3-0.2-0.5l0-6l-1,0l0,6.6c0,0.2-0.1,0.5-0.3,0.6
				c-0.6,0.4-1,0.7-1.3,1.2c-0.5,0.9-0.8,2.3-0.8,4.1v0.2l-0.1,27c0.1,2.3,0.3,4.5,0.9,5.7c0.3,0.6,0.7,0.9,1.4,1.1
				c0.7,0.2,1.6,0.3,3.1,0.4l2.9,0h0.3c1.6,0,2.6-0.1,3.3-0.3c0.7-0.2,1.1-0.5,1.4-1.1c0.7-1.1,0.9-3.4,1-5.7l0.1-27.1
				c0-1.8-0.3-3.2-0.8-4.1C64.4,18.9,63.2,18.3,61.2,18.3z M61.7,23.3l0.4-0.1c0.3,0,0.6,0.1,0.7,0.4L63,24c0,0.3-0.2,0.5-0.4,0.6
				l-0.4,0.1c-0.3,0-0.6-0.1-0.7-0.4L61.3,24C61.3,23.7,61.4,23.4,61.7,23.3z M61.7,26.3l0.4-0.1c0.3,0,0.6,0.1,0.7,0.4l0.1,0.4
				c0,0.3-0.2,0.5-0.4,0.6l-0.4,0.1c-0.3,0-0.6-0.1-0.7-0.4l-0.1-0.4C61.2,26.6,61.4,26.4,61.7,26.3z M59,21.8
				c0.5,0,0.9,0.3,0.9,0.7c0,0.4-0.4,0.7-0.9,0.7c-0.5,0-0.9-0.3-0.9-0.7C58.1,22.1,58.5,21.8,59,21.8z M59,24.7
				c0.5,0,0.9,0.3,0.9,0.7c0,0.4-0.4,0.7-0.9,0.7c-0.5,0-0.9-0.3-0.9-0.7C58.1,25,58.5,24.7,59,24.7z M59,27.6
				c0.5,0,0.9,0.3,0.9,0.7c0,0.4-0.4,0.7-0.9,0.7c-0.5,0-0.9-0.3-0.9-0.7C58.1,27.9,58.5,27.6,59,27.6z M55.1,23.6
				c0.2-0.2,0.5-0.4,0.7-0.4l0.4,0.1c0.3,0.1,0.4,0.4,0.4,0.6l-0.1,0.4c-0.2,0.2-0.5,0.4-0.8,0.4l-0.4-0.1c-0.3-0.1-0.4-0.4-0.4-0.6
				L55.1,23.6z M55.4,26.2l0.4-0.1c0.3,0,0.6,0.1,0.7,0.4l0.1,0.4c0,0.3-0.2,0.5-0.4,0.6l-0.4,0.1c-0.3,0-0.6-0.1-0.7-0.4L55,26.9
				C55,26.6,55.1,26.4,55.4,26.2z M56.3,50.1c0,0.4-0.3,0.7-0.7,0.7h-1.1c-0.4,0-0.7-0.3-0.7-0.7v-1.1c0-0.4,0.3-0.7,0.7-0.7h1.1
				c0.4,0,0.7,0.3,0.7,0.7V50.1z M56.3,46.9c0,0.4-0.3,0.7-0.7,0.7h-1.1c-0.4,0-0.7-0.3-0.7-0.7v-1.1c0-0.4,0.3-0.7,0.7-0.7h1.1
				c0.4,0,0.7,0.3,0.7,0.7V46.9z M56.3,43.7c0,0.4-0.3,0.7-0.7,0.7h-1.1c-0.4,0-0.7-0.3-0.7-0.7v-1.1c0-0.4,0.3-0.7,0.7-0.7h1.1
				c0.4,0,0.7,0.3,0.7,0.7V43.7z M56.3,40.6c0,0.4-0.3,0.7-0.7,0.7h-1.1c-0.4,0-0.7-0.3-0.7-0.7v-1.1c0-0.4,0.3-0.7,0.7-0.7h1.1
				c0.4,0,0.7,0.3,0.7,0.7V40.6z M60.1,50.1c0,0.4-0.3,0.7-0.7,0.7h-1.1c-0.4,0-0.7-0.3-0.7-0.7v-1.1c0-0.4,0.3-0.7,0.7-0.7h1.1
				c0.4,0,0.7,0.3,0.7,0.7V50.1z M60.1,46.9c0,0.4-0.3,0.7-0.7,0.7h-1.1c-0.4,0-0.7-0.3-0.7-0.7v-1.1c0-0.4,0.3-0.7,0.7-0.7h1.1
				c0.4,0,0.7,0.3,0.7,0.7V46.9z M60.1,43.7c0,0.4-0.3,0.7-0.7,0.7h-1.1c-0.4,0-0.7-0.3-0.7-0.7v-1.1c0-0.4,0.3-0.7,0.7-0.7h1.1
				c0.4,0,0.7,0.3,0.7,0.7V43.7z M60.1,40.6c0,0.4-0.3,0.7-0.7,0.7h-1.1c-0.4,0-0.7-0.3-0.7-0.7v-1.1c0-0.4,0.3-0.7,0.7-0.7h1.1
				c0.4,0,0.7,0.3,0.7,0.7V40.6z M64,50.1c0,0.4-0.3,0.7-0.7,0.7h-1.1c-0.4,0-0.7-0.3-0.7-0.7v-1.1c0-0.4,0.3-0.7,0.7-0.7h1.1
				c0.4,0,0.7,0.3,0.7,0.7V50.1z M64,46.9c0,0.4-0.3,0.7-0.7,0.7h-1.1c-0.4,0-0.7-0.3-0.7-0.7v-1.1c0-0.4,0.3-0.7,0.7-0.7h1.1
				c0.4,0,0.7,0.3,0.7,0.7V46.9z M64,43.7c0,0.4-0.3,0.7-0.7,0.7h-1.1c-0.4,0-0.7-0.3-0.7-0.7v-1.1c0-0.4,0.3-0.7,0.7-0.7h1.1
				c0.4,0,0.7,0.3,0.7,0.7V43.7z M64,40.6c0,0.4-0.3,0.7-0.7,0.7h-1.1c-0.4,0-0.7-0.3-0.7-0.7v-1.1c0-0.4,0.3-0.7,0.7-0.7h1.1
				c0.4,0,0.7,0.3,0.7,0.7V40.6z M64.5,34.3c0,0.4-0.3,0.7-0.7,0.7H54c-0.4,0-0.7-0.3-0.7-0.7v-1.7c0-0.4,0.3-0.7,0.7-0.7h9.8
				c0.4,0,0.7,0.3,0.7,0.7C64.5,32.5,64.5,34.3,64.5,34.3z"/>
			<path d="M59,26.1c0.5,0,0.9-0.3,0.9-0.7s-0.4-0.7-0.9-0.7s-0.9,0.3-0.9,0.7C58.1,25.8,58.5,26.1,59,26.1z"/>
			<path d="M59,29.1c0.5,0,0.9-0.3,0.9-0.7s-0.4-0.7-0.9-0.7c-0.5,0-0.9,0.3-0.9,0.7C58.1,28.8,58.5,29.1,59,29.1z"/>
			<path d="M59,23.2c0.5,0,0.9-0.3,0.9-0.7s-0.4-0.7-0.9-0.7c-0.5,0-0.9,0.3-0.9,0.7C58.1,22.9,58.5,23.2,59,23.2z"/>
			<path d="M55.4,24.6l0.4,0.1c0.3,0,0.6-0.1,0.8-0.4l0.1-0.4c0-0.3-0.2-0.5-0.4-0.6l-0.4-0.1c-0.3,0-0.6,0.1-0.7,0.4L55,23.9
				C55,24.2,55.2,24.5,55.4,24.6z"/>
			<path d="M62.1,24.7l0.4-0.1c0.3-0.1,0.4-0.4,0.4-0.6l-0.1-0.4c-0.2-0.2-0.5-0.4-0.7-0.4l-0.4,0.1c-0.3,0.1-0.4,0.4-0.4,0.6
				l0.1,0.4C61.5,24.6,61.8,24.7,62.1,24.7z"/>
			<path d="M55.8,27.6l0.4-0.1c0.3-0.1,0.4-0.4,0.4-0.6l-0.1-0.4c-0.2-0.2-0.5-0.4-0.7-0.4l-0.4,0.1c-0.3,0.1-0.4,0.4-0.4,0.6
				l0.1,0.4C55.3,27.5,55.6,27.6,55.8,27.6z"/>
			<path d="M62.1,27.6l0.4-0.1c0.3-0.1,0.4-0.4,0.4-0.6l-0.1-0.4c-0.2-0.2-0.4-0.4-0.7-0.4l-0.4,0.1c-0.3,0.1-0.4,0.4-0.4,0.6
				l0.1,0.4C61.5,27.5,61.8,27.6,62.1,27.6z"/>
			<path d="M61.2,16.9l-4.5,0l0-6c0-0.4-0.3-0.7-0.7-0.7l-2.4,0c-0.2,0-0.4,0.1-0.5,0.2c-0.1,0.1-0.2,0.4-0.2,0.5l0,6.9
				c-0.6,0.4-1,0.9-1.4,1.5c-0.7,1.1-1,2.7-1,4.8l-0.1,27.2c0.1,2.9,0.3,5,1.1,6.3c0.5,0.9,1.2,1.4,2.2,1.7c0.8,0.3,1.9,0.4,3.5,0.4
				l2.9,0h0l0.4,0c1.7,0,2.7-0.1,3.5-0.4c1-0.3,1.7-0.9,2.2-1.7c0.8-1.3,1-3.5,1.2-6.4l0.1-27v-0.2c0-2.1-0.3-3.6-1-4.8
				C65.4,17.8,63.7,16.9,61.2,16.9z M65.9,51.3c-0.1,2.3-0.3,4.5-1,5.7c-0.3,0.5-0.7,0.8-1.4,1.1c-0.7,0.2-1.6,0.3-3.3,0.3h-0.3
				l-2.9,0c-1.5,0-2.5-0.2-3.1-0.4c-0.7-0.2-1.1-0.5-1.4-1.1c-0.6-1.1-0.8-3.4-0.9-5.7l0.1-27v-0.2c0-1.8,0.3-3.2,0.8-4.1
				c0.3-0.5,0.7-0.9,1.3-1.2c0.2-0.1,0.3-0.4,0.3-0.6l0-6.6l1,0l0,6c0,0.2,0.1,0.4,0.2,0.5c0.1,0.1,0.3,0.2,0.5,0.2l5.2,0
				c2,0,3.3,0.6,4,1.9c0.5,0.9,0.8,2.3,0.8,4.1L65.9,51.3z"/>
			<path d="M55.6,38.7h-1.1c-0.4,0-0.7,0.3-0.7,0.7v1.1c0,0.4,0.3,0.7,0.7,0.7h1.1c0.4,0,0.7-0.3,0.7-0.7v-1.1
				C56.3,39,56,38.7,55.6,38.7z"/>
			<path d="M59.5,38.7h-1.1c-0.4,0-0.7,0.3-0.7,0.7v1.1c0,0.4,0.3,0.7,0.7,0.7h1.1c0.4,0,0.7-0.3,0.7-0.7v-1.1
				C60.1,39,59.8,38.7,59.5,38.7z"/>
			<path d="M63.3,38.7h-1.1c-0.4,0-0.7,0.3-0.7,0.7v1.1c0,0.4,0.3,0.7,0.7,0.7h1.1c0.4,0,0.7-0.3,0.7-0.7v-1.1
				C64,39,63.7,38.7,63.3,38.7z"/>
			<path d="M55.6,41.9h-1.1c-0.4,0-0.7,0.3-0.7,0.7v1.1c0,0.4,0.3,0.7,0.7,0.7h1.1c0.4,0,0.7-0.3,0.7-0.7v-1.1
				C56.3,42.2,56,41.9,55.6,41.9z"/>
			<path d="M59.5,41.9h-1.1c-0.4,0-0.7,0.3-0.7,0.7v1.1c0,0.4,0.3,0.7,0.7,0.7h1.1c0.4,0,0.7-0.3,0.7-0.7v-1.1
				C60.1,42.2,59.8,41.9,59.5,41.9z"/>
			<path d="M63.3,41.9h-1.1c-0.4,0-0.7,0.3-0.7,0.7v1.1c0,0.4,0.3,0.7,0.7,0.7h1.1c0.4,0,0.7-0.3,0.7-0.7v-1.1
				C64,42.2,63.7,41.9,63.3,41.9z"/>
			<path d="M55.6,45.1h-1.1c-0.4,0-0.7,0.3-0.7,0.7v1.1c0,0.4,0.3,0.7,0.7,0.7h1.1c0.4,0,0.7-0.3,0.7-0.7v-1.1
				C56.3,45.4,56,45.1,55.6,45.1z"/>
			<path d="M59.5,45.1h-1.1c-0.4,0-0.7,0.3-0.7,0.7v1.1c0,0.4,0.3,0.7,0.7,0.7h1.1c0.4,0,0.7-0.3,0.7-0.7v-1.1
				C60.1,45.4,59.8,45.1,59.5,45.1z"/>
			<path d="M63.3,45.1h-1.1c-0.4,0-0.7,0.3-0.7,0.7v1.1c0,0.4,0.3,0.7,0.7,0.7h1.1c0.4,0,0.7-0.3,0.7-0.7v-1.1
				C64,45.4,63.7,45.1,63.3,45.1z"/>
			<path d="M55.6,48.2h-1.1c-0.4,0-0.7,0.3-0.7,0.7v1.1c0,0.4,0.3,0.7,0.7,0.7h1.1c0.4,0,0.7-0.3,0.7-0.7v-1.1
				C56.3,48.6,56,48.2,55.6,48.2z"/>
			<path d="M59.5,48.2h-1.1c-0.4,0-0.7,0.3-0.7,0.7v1.1c0,0.4,0.3,0.7,0.7,0.7h1.1c0.4,0,0.7-0.3,0.7-0.7v-1.1
				C60.1,48.6,59.8,48.2,59.5,48.2z"/>
			<path d="M63.3,48.2h-1.1c-0.4,0-0.7,0.3-0.7,0.7v1.1c0,0.4,0.3,0.7,0.7,0.7h1.1c0.4,0,0.7-0.3,0.7-0.7v-1.1
				C64,48.6,63.7,48.2,63.3,48.2z"/>
			<path d="M63.8,31.8H54c-0.4,0-0.7,0.3-0.7,0.7v1.7c0,0.4,0.3,0.7,0.7,0.7h9.8c0.4,0,0.7-0.3,0.7-0.7v-1.7
				C64.5,32.1,64.2,31.8,63.8,31.8z"/>
		</g>
		<g>
			<path class="st4" d="M13.5,18.4l-5.2,0c-0.2,0-0.4-0.1-0.5-0.2c-0.1-0.1-0.2-0.3-0.2-0.5l0-6l-1,0l0,6.6c0,0.2-0.1,0.5-0.3,0.6
				c-0.6,0.4-1,0.7-1.3,1.2c-0.5,0.9-0.8,2.3-0.8,4.1v0.2L3.9,51.4c0.1,2.3,0.3,4.5,0.9,5.7c0.3,0.6,0.7,0.9,1.4,1.1
				c0.7,0.2,1.6,0.3,3.1,0.4l2.9,0h0.3c1.6,0,2.6-0.1,3.3-0.3c0.7-0.2,1.1-0.5,1.4-1.1c0.7-1.1,0.9-3.4,1-5.7l0.1-27.1
				c0-1.8-0.3-3.2-0.8-4.1C16.7,19,15.5,18.4,13.5,18.4z M14,23.4l0.4-0.1c0.3,0,0.6,0.1,0.7,0.4l0.1,0.4c0,0.3-0.2,0.5-0.4,0.6
				l-0.4,0.1c-0.3,0-0.6-0.1-0.8-0.4l-0.1-0.4C13.6,23.8,13.7,23.6,14,23.4z M14,26.4l0.4-0.1c0.3,0,0.6,0.1,0.7,0.4l0.1,0.4
				c0,0.3-0.2,0.5-0.4,0.6l-0.4,0.1c-0.3,0-0.6-0.1-0.7-0.4L13.5,27C13.5,26.7,13.7,26.5,14,26.4z M11.3,21.9c0.5,0,0.9,0.3,0.9,0.7
				c0,0.4-0.4,0.7-0.9,0.7c-0.5,0-0.9-0.3-0.9-0.7C10.4,22.2,10.9,21.9,11.3,21.9z M11.3,24.8c0.5,0,0.9,0.3,0.9,0.7
				c0,0.4-0.4,0.7-0.9,0.7c-0.5,0-0.9-0.3-0.9-0.7C10.4,25.1,10.8,24.8,11.3,24.8z M11.3,27.7c0.5,0,0.9,0.3,0.9,0.7
				c0,0.4-0.4,0.7-0.9,0.7c-0.5,0-0.9-0.3-0.9-0.7C10.4,28,10.8,27.7,11.3,27.7z M7.4,23.7c0.2-0.2,0.5-0.4,0.7-0.4l0.4,0.1
				C8.9,23.5,9,23.8,9,24.1l-0.1,0.4c-0.2,0.2-0.5,0.4-0.8,0.4l-0.4-0.1c-0.3-0.1-0.4-0.4-0.4-0.6L7.4,23.7z M7.7,26.3l0.4-0.1
				c0.3,0,0.6,0.1,0.7,0.4L9,27c0,0.3-0.2,0.5-0.4,0.6l-0.4,0.1c-0.3,0-0.6-0.1-0.7-0.4L7.3,27C7.3,26.7,7.4,26.5,7.7,26.3z
				 M8.6,50.2c0,0.4-0.3,0.7-0.7,0.7H6.8c-0.4,0-0.7-0.3-0.7-0.7V49c0-0.4,0.3-0.7,0.7-0.7h1.1c0.4,0,0.7,0.3,0.7,0.7V50.2z M8.6,47
				c0,0.4-0.3,0.7-0.7,0.7H6.8c-0.4,0-0.7-0.3-0.7-0.7v-1.1c0-0.4,0.3-0.7,0.7-0.7h1.1c0.4,0,0.7,0.3,0.7,0.7V47z M8.6,43.8
				c0,0.4-0.3,0.7-0.7,0.7H6.8c-0.4,0-0.7-0.3-0.7-0.7v-1.1c0-0.4,0.3-0.7,0.7-0.7h1.1c0.4,0,0.7,0.3,0.7,0.7V43.8z M8.6,40.7
				c0,0.4-0.3,0.7-0.7,0.7H6.8c-0.4,0-0.7-0.3-0.7-0.7v-1.1c0-0.4,0.3-0.7,0.7-0.7h1.1c0.4,0,0.7,0.3,0.7,0.7V40.7z M12.4,50.2
				c0,0.4-0.3,0.7-0.7,0.7h-1.1c-0.4,0-0.7-0.3-0.7-0.7V49c0-0.4,0.3-0.7,0.7-0.7h1.1c0.4,0,0.7,0.3,0.7,0.7V50.2z M12.4,47
				c0,0.4-0.3,0.7-0.7,0.7h-1.1c-0.4,0-0.7-0.3-0.7-0.7v-1.1c0-0.4,0.3-0.7,0.7-0.7h1.1c0.4,0,0.7,0.3,0.7,0.7V47z M12.4,43.8
				c0,0.4-0.3,0.7-0.7,0.7h-1.1c-0.4,0-0.7-0.3-0.7-0.7v-1.1c0-0.4,0.3-0.7,0.7-0.7h1.1c0.4,0,0.7,0.3,0.7,0.7V43.8z M12.4,40.7
				c0,0.4-0.3,0.7-0.7,0.7h-1.1c-0.4,0-0.7-0.3-0.7-0.7v-1.1c0-0.4,0.3-0.7,0.7-0.7h1.1c0.4,0,0.7,0.3,0.7,0.7V40.7z M16.3,50.2
				c0,0.4-0.3,0.7-0.7,0.7h-1.1c-0.4,0-0.7-0.3-0.7-0.7V49c0-0.4,0.3-0.7,0.7-0.7h1.1c0.4,0,0.7,0.3,0.7,0.7V50.2z M16.3,47
				c0,0.4-0.3,0.7-0.7,0.7h-1.1c-0.4,0-0.7-0.3-0.7-0.7v-1.1c0-0.4,0.3-0.7,0.7-0.7h1.1c0.4,0,0.7,0.3,0.7,0.7V47z M16.3,43.8
				c0,0.4-0.3,0.7-0.7,0.7h-1.1c-0.4,0-0.7-0.3-0.7-0.7v-1.1c0-0.4,0.3-0.7,0.7-0.7h1.1c0.4,0,0.7,0.3,0.7,0.7V43.8z M16.3,40.7
				c0,0.4-0.3,0.7-0.7,0.7h-1.1c-0.4,0-0.7-0.3-0.7-0.7v-1.1c0-0.4,0.3-0.7,0.7-0.7h1.1c0.4,0,0.7,0.3,0.7,0.7V40.7z M16.8,34.4
				c0,0.4-0.3,0.7-0.7,0.7H6.3c-0.4,0-0.7-0.3-0.7-0.7v-1.7c0-0.4,0.3-0.7,0.7-0.7h9.8c0.4,0,0.7,0.3,0.7,0.7L16.8,34.4L16.8,34.4z"
				/>
			<path d="M11.3,26.3c0.5,0,0.9-0.3,0.9-0.7s-0.4-0.7-0.9-0.7c-0.5,0-0.9,0.3-0.9,0.7C10.4,26,10.8,26.3,11.3,26.3z"/>
			<path d="M11.3,29.2c0.5,0,0.9-0.3,0.9-0.7s-0.4-0.7-0.9-0.7c-0.5,0-0.9,0.3-0.9,0.7C10.4,28.9,10.8,29.2,11.3,29.2z"/>
			<path d="M11.3,23.3c0.5,0,0.9-0.3,0.9-0.7s-0.4-0.7-0.9-0.7c-0.5,0-0.9,0.3-0.9,0.7C10.4,23,10.8,23.3,11.3,23.3z"/>
			<path d="M7.7,24.7l0.4,0.1c0.3,0,0.6-0.1,0.8-0.4L9,24.1c0-0.3-0.2-0.5-0.4-0.6l-0.4-0.1c-0.3,0-0.6,0.1-0.7,0.4l-0.1,0.4
				C7.3,24.3,7.5,24.6,7.7,24.7z"/>
			<path d="M14.4,24.8l0.4-0.1c0.3-0.1,0.4-0.4,0.4-0.6l-0.1-0.4c-0.2-0.2-0.5-0.4-0.7-0.4L14,23.4c-0.3,0.1-0.4,0.4-0.4,0.6
				l0.1,0.4C13.8,24.7,14.1,24.8,14.4,24.8z"/>
			<path d="M8.1,27.7l0.4-0.1C8.8,27.5,9,27.3,9,27l-0.1-0.4c-0.2-0.2-0.5-0.4-0.7-0.4l-0.4,0.1c-0.3,0.1-0.4,0.4-0.4,0.6l0.1,0.4
				C7.6,27.6,7.9,27.7,8.1,27.7z"/>
			<path d="M14.4,27.7l0.4-0.1c0.3-0.1,0.4-0.4,0.4-0.6l-0.1-0.4c-0.2-0.2-0.5-0.4-0.7-0.4L14,26.4c-0.3,0.1-0.4,0.4-0.4,0.6
				l0.1,0.4C13.8,27.6,14.1,27.7,14.4,27.7z"/>
			<path d="M13.5,17l-4.5,0l0-6c0-0.4-0.3-0.7-0.7-0.7l-2.4,0c-0.2,0-0.4,0.1-0.5,0.2c-0.1,0.1-0.2,0.4-0.2,0.5l0,6.9
				c-0.6,0.4-1,0.9-1.4,1.5c-0.7,1.1-1,2.7-1,4.8L2.5,51.4c0.1,2.9,0.3,5,1.1,6.3c0.5,0.9,1.2,1.4,2.2,1.7c0.8,0.3,1.9,0.4,3.5,0.4
				l2.9,0h0l0.4,0c1.7,0,2.7-0.1,3.5-0.4c1-0.3,1.7-0.9,2.2-1.7c0.8-1.3,1-3.5,1.2-6.4l0.1-27v-0.2c0-2.1-0.3-3.6-1-4.8
				C17.7,17.9,16,17,13.5,17z M18.2,51.4c-0.1,2.3-0.3,4.5-1,5.7c-0.3,0.5-0.7,0.8-1.4,1.1c-0.7,0.2-1.6,0.3-3.3,0.3h-0.3l-2.9,0
				c-1.5,0-2.5-0.2-3.1-0.4c-0.7-0.2-1.1-0.5-1.4-1.1C4.2,55.9,4,53.7,4,51.4l0.1-27v-0.2c0-1.8,0.3-3.2,0.8-4.1
				c0.3-0.5,0.7-0.9,1.3-1.2c0.2-0.1,0.3-0.4,0.3-0.6l0-6.6l1,0l0,6c0,0.2,0.1,0.4,0.2,0.5c0.1,0.1,0.3,0.2,0.5,0.2l5.2,0
				c2,0,3.3,0.6,4,1.9c0.5,0.9,0.8,2.3,0.8,4.1L18.2,51.4z"/>
			<path d="M7.9,38.9H6.8c-0.4,0-0.7,0.3-0.7,0.7v1.1c0,0.4,0.3,0.7,0.7,0.7h1.1c0.4,0,0.7-0.3,0.7-0.7v-1.1
				C8.6,39.2,8.3,38.9,7.9,38.9z"/>
			<path d="M11.8,38.9h-1.1c-0.4,0-0.7,0.3-0.7,0.7v1.1c0,0.4,0.3,0.7,0.7,0.7h1.1c0.4,0,0.7-0.3,0.7-0.7v-1.1
				C12.4,39.2,12.1,38.9,11.8,38.9z"/>
			<path d="M15.6,38.9h-1.1c-0.4,0-0.7,0.3-0.7,0.7v1.1c0,0.4,0.3,0.7,0.7,0.7h1.1c0.4,0,0.7-0.3,0.7-0.7v-1.1
				C16.3,39.2,16,38.9,15.6,38.9z"/>
			<path d="M7.9,42H6.8c-0.4,0-0.7,0.3-0.7,0.7v1.1c0,0.4,0.3,0.7,0.7,0.7h1.1c0.4,0,0.7-0.3,0.7-0.7v-1.1C8.6,42.3,8.3,42,7.9,42z"
				/>
			<path d="M11.8,42h-1.1c-0.4,0-0.7,0.3-0.7,0.7v1.1c0,0.4,0.3,0.7,0.7,0.7h1.1c0.4,0,0.7-0.3,0.7-0.7v-1.1
				C12.4,42.3,12.1,42,11.8,42z"/>
			<path d="M15.6,42h-1.1c-0.4,0-0.7,0.3-0.7,0.7v1.1c0,0.4,0.3,0.7,0.7,0.7h1.1c0.4,0,0.7-0.3,0.7-0.7v-1.1
				C16.3,42.3,16,42,15.6,42z"/>
			<path d="M7.9,45.2H6.8c-0.4,0-0.7,0.3-0.7,0.7V47c0,0.4,0.3,0.7,0.7,0.7h1.1c0.4,0,0.7-0.3,0.7-0.7v-1.1
				C8.6,45.5,8.3,45.2,7.9,45.2z"/>
			<path d="M11.8,45.2h-1.1c-0.4,0-0.7,0.3-0.7,0.7V47c0,0.4,0.3,0.7,0.7,0.7h1.1c0.4,0,0.7-0.3,0.7-0.7v-1.1
				C12.4,45.5,12.1,45.2,11.8,45.2z"/>
			<path d="M15.6,45.2h-1.1c-0.4,0-0.7,0.3-0.7,0.7V47c0,0.4,0.3,0.7,0.7,0.7h1.1c0.4,0,0.7-0.3,0.7-0.7v-1.1
				C16.3,45.5,16,45.2,15.6,45.2z"/>
			<path d="M7.9,48.4H6.8c-0.4,0-0.7,0.3-0.7,0.7v1.1c0,0.4,0.3,0.7,0.7,0.7h1.1c0.4,0,0.7-0.3,0.7-0.7V49
				C8.6,48.7,8.3,48.4,7.9,48.4z"/>
			<path d="M11.8,48.4h-1.1c-0.4,0-0.7,0.3-0.7,0.7v1.1c0,0.4,0.3,0.7,0.7,0.7h1.1c0.4,0,0.7-0.3,0.7-0.7V49
				C12.4,48.7,12.1,48.4,11.8,48.4z"/>
			<path d="M15.6,48.4h-1.1c-0.4,0-0.7,0.3-0.7,0.7v1.1c0,0.4,0.3,0.7,0.7,0.7h1.1c0.4,0,0.7-0.3,0.7-0.7V49
				C16.3,48.7,16,48.4,15.6,48.4z"/>
			<path d="M16.1,31.9H6.3c-0.4,0-0.7,0.3-0.7,0.7v1.7c0,0.4,0.3,0.7,0.7,0.7h9.8c0.4,0,0.7-0.3,0.7-0.7v-1.7
				C16.8,32.3,16.5,31.9,16.1,31.9z"/>
		</g>
	</g>
</g>
</svg>
