<?xml version="1.0" encoding="utf-8"?>
<!-- Generator: Adobe Illustrator 28.1.0, SVG Export Plug-In . SVG Version: 6.00 Build 0)  -->
<svg version="1.1" id="Layer_1" xmlns="http://www.w3.org/2000/svg" xmlns:xlink="http://www.w3.org/1999/xlink" x="0px" y="0px"
	 viewBox="0 0 96.9 70" style="enable-background:new 0 0 96.9 70;" xml:space="preserve">
<style type="text/css">
	.st0{fill:#FFFFFF;}
	.st1{fill:url(#SVGID_1_);stroke:#3668B2;stroke-width:0.4107;stroke-miterlimit:10;}
	.st2{fill:#FCB918;}
	.st3{fill:#E37125;}
	.st4{fill:#06456A;}
</style>
<g>
	<g>
		<path class="st0" d="M72.7,68.2c-0.4,0-0.8-0.3-1.4-0.9c-0.8-0.9-1.3-2.3-1.9-3.8c-0.9-2.3-1.8-4.8-3.6-4.8c-0.1,0-0.2,0-0.3,0
			c-0.2,0-0.5,0.1-1,0.2c-1.5,0.4-4.3,1-6.9,1c-1.2,0-2.3-0.1-3.3-0.4c-0.4,0.1-0.8,0.1-1.3,0.1c-0.2,0-0.5,0-0.7,0
			c-0.2,0-0.5,0-0.7,0c-0.4,0-0.9,0-1.4,0.2c-2.9,0.9-4.6,2.9-4.9,5.8l0,0.2l-0.2,0.1c-0.2,0.1-0.5,0.1-0.7,0.1
			c-2.1,0-3.8-3.2-4.8-4.9c-0.1-0.2-0.2-0.3-0.2-0.4c-0.5-0.4-1-0.7-1.2-0.8c-0.3,0.4-0.8,0.7-2.3,0.7c-0.2,0-0.5,0-0.7,0
			c-1.7-0.1-2.5-1.5-3.3-2.8c-0.8-1.4-1.6-2.7-3.4-2.7h-0.2c-0.2,0-0.7,0.2-1.2,0.4c-1,0.4-2.4,1-4,1.1c-0.1,0-0.2,0-0.3,0
			c-2.5,0-6.5-2.2-9.6-4C12,52,10.9,51.4,10.1,51c-9.6-4.3-9.2-19.6-8.6-25.9c-0.3-3.6-0.2-5.6,0.9-6.8c1.2-1.3,3.5-1.4,7.1-1.4
			l39.9-0.1l0.1,0.1c2.3,1.3,4.7,1.9,7.2,2.4c2.9,0.6,6,1.3,8.9,3.3c4.2,2.9,7,5.5,3.4,10.8c1.3-0.1,4.9-1.7,6-2.9
			c0.2-0.2,0.3-0.4,0.3-0.4l0-0.2l0.2-0.1c0.2-0.1,0.4-0.2,0.8-0.2c0.4,0,0.8,0.1,1.3,0.2c0.4,0.1,0.8,0.1,1,0.1c0.1,0,0.1,0,0.1,0
			c0.8-0.1,1.1-0.8,1.5-1.5c0.4-0.8,0.9-1.7,2.2-1.7c0.2,0,0.6,0,1.1,0.1c0.6,0.1,1.3,0.1,1.9,0.1c0.7,0,0.9-0.1,1-0.1
			c1.5-1,2.6-2,3.4-2.9c1.1-1,1.9-1.8,2.7-1.8c1.1,0,2,1.3,3.3,5.1c0.4,1.3-0.9,1.9-2.3,2.4c-1.2,0.5-2.5,1-2.9,2
			c-0.2,0.6-0.1,1.5,0.4,2.5c0.2,0.5,0.2,0.9,0,1.2c-0.4,0.6-1.5,0.8-3,0.8c-0.4,0-0.8,0-1.1,0c-0.4,0-0.8,0-1.1,0
			c-0.5,0-2,0-2.3,0.4c0,0-0.1,0.1,0,0.2c0.3,1.7-0.8,3.4-1.7,4.8c-0.8,1.2-1.4,2.3-1.1,3c0.5,0.9,0.5,1.9,0,3
			c-0.9,2.2-3.4,4.5-5.2,5.1c-2.7,0.9-3.9,3.6-3.1,6.7c0,0.1,2,7.3,1,8.7C73.2,68.1,72.9,68.2,72.7,68.2z"/>
		<path d="M49.2,17.2c5,3,10.8,2,16.1,5.7c4.2,2.9,6.7,5.2,3.3,10.4c-0.3,0.4-0.1,0.6,0.3,0.6c1.5,0,6.8-2.5,6.7-3.7
			c0.1-0.1,0.3-0.1,0.5-0.1c0.7,0,1.7,0.3,2.3,0.3c0.1,0,0.1,0,0.2,0c2-0.4,1.6-3.2,3.6-3.2c0.5,0,1.9,0.2,3,0.2
			c0.5,0,1-0.1,1.2-0.2c3.2-2.1,4.7-4.6,5.9-4.6c0.9,0,1.7,1.3,2.9,4.9c0.8,2.5-7.4,1.5-4.8,6.9c0.6,1.3-0.8,1.5-2.6,1.5
			c-0.7,0-1.5,0-2.3,0c-1.6,0-2.9,0.1-2.7,1c0.5,3.1-3.6,6-2.7,7.9c1.5,2.8-2.8,6.8-5,7.6c-3.1,1.1-4.2,4.1-3.3,7.1
			c0.1,0.2,2.3,8.5,0.7,8.5c-0.3,0-0.6-0.2-1.1-0.8c-2-2.2-2.4-8.6-5.8-8.6c-0.1,0-0.2,0-0.3,0c-0.8,0.1-4.4,1.3-7.9,1.3
			c-1.1,0-2.3-0.1-3.3-0.4c-0.4,0.1-0.8,0.1-1.3,0.1c-0.4,0-0.9,0-1.4,0c-0.5,0-1,0-1.5,0.2c-2.9,0.9-4.8,2.9-5.1,6.1
			c-0.2,0.1-0.4,0.1-0.6,0.1c-2.1,0-4-4-4.7-5.3c-1.1-0.8-1.4-1-1.6-1c-0.3,0,0,0.8-2.2,0.8c-0.2,0-0.4,0-0.7,0
			c-3.2-0.2-2.8-5.5-6.7-5.5c-0.1,0-0.1,0-0.2,0c-0.8,0-2.8,1.4-5.2,1.5c-0.1,0-0.2,0-0.3,0c-3.4,0-9.7-4.3-12.6-5.6
			c-8.7-4-9.2-17.1-8.4-25.5c-0.5-7.4,0.4-7.9,7.7-7.9C22.7,17.3,36,17.2,49.2,17.2 M49.4,16.4h-0.2l-19.8,0.1L9.5,16.5
			c-3.7,0-6.1,0.1-7.4,1.5c-1.2,1.3-1.3,3.4-1,7.1c-0.8,8-0.6,21.9,8.9,26.2c0.8,0.4,1.9,1,3.1,1.7c3.2,1.8,7.2,4,9.8,4
			c0.1,0,0.2,0,0.3,0c1.6-0.1,3.1-0.7,4.1-1.1c0.4-0.2,0.9-0.4,1.1-0.4c0.1,0,0.1,0,0.2,0c1.6,0,2.3,1.2,3.1,2.6
			c0.8,1.3,1.7,2.9,3.6,3c0.3,0,0.5,0,0.7,0c1.3,0,2-0.3,2.4-0.6c0.2,0.1,0.5,0.4,0.9,0.6c0.1,0.1,0.1,0.2,0.2,0.4
			c1,1.8,2.8,5.1,5.1,5.1c0.3,0,0.6,0,0.8-0.1l0.5-0.2l0.1-0.5c0.3-2.8,1.8-4.6,4.6-5.5c0.3-0.1,0.8-0.2,1.3-0.2c0.2,0,0.4,0,0.7,0
			c0.2,0,0.5,0,0.7,0c0.3,0,0.8,0,1.3-0.1c1,0.3,2,0.4,3.3,0.4c2.7,0,5.5-0.7,7-1c0.4-0.1,0.8-0.2,1-0.2c0.1,0,0.2,0,0.2,0
			c1.6,0,2.4,2.3,3.2,4.5c0.6,1.5,1.1,3,1.9,3.9c0.6,0.7,1.1,1,1.7,1c0.4,0,0.7-0.2,0.9-0.5c1.2-1.6-0.8-8.7-0.9-9
			c-0.8-2.9,0.3-5.3,2.8-6.2c1.8-0.6,4.5-3,5.4-5.3c0.5-1.2,0.5-2.4,0-3.3c-0.3-0.5,0.4-1.6,1-2.6c0.9-1.5,2-3.1,1.7-5
			c0.1-0.1,0.6-0.2,2-0.2c0.4,0,0.7,0,1.1,0c0.4,0,0.8,0,1.2,0c1.7,0,2.8-0.2,3.3-1c0.2-0.3,0.3-0.9,0-1.6c-0.4-0.9-0.6-1.6-0.4-2.2
			c0.3-0.9,1.6-1.4,2.7-1.8c1.3-0.5,3-1.2,2.5-2.9c-1.2-3.5-2.1-5.4-3.6-5.4l0,0c-1,0-1.8,0.8-3,1.9c-0.9,0.8-2,1.9-3.4,2.8l0,0
			c0,0-0.2,0.1-0.8,0.1c-0.6,0-1.3-0.1-1.9-0.1c-0.5,0-0.8-0.1-1.1-0.1c-1.5,0-2.1,1.1-2.5,1.9c-0.4,0.7-0.6,1.1-1.2,1.3
			c0,0,0,0-0.1,0c-0.2,0-0.6-0.1-0.9-0.1c-0.5-0.1-0.9-0.2-1.4-0.2c-0.4,0-0.7,0.1-1,0.3l-0.3,0.2l0,0.4c-0.3,0.7-3.3,2.3-5.1,2.8
			c3-5.2,0.1-7.8-4-10.6c-2.9-2-6-2.7-9-3.4c-2.5-0.5-4.9-1.1-7.1-2.4L49.4,16.4L49.4,16.4z"/>
	</g>
	<g>
		
			<linearGradient id="SVGID_1_" gradientUnits="userSpaceOnUse" x1="46.2511" y1="4.679" x2="46.2511" y2="70.3738" gradientTransform="matrix(1 0 0 -1 0 71.75)">
			<stop  offset="0" style="stop-color:#06456A"/>
			<stop  offset="6.560000e-02" style="stop-color:#135075"/>
			<stop  offset="0.1804" style="stop-color:#256084"/>
			<stop  offset="0.3096" style="stop-color:#326E91"/>
			<stop  offset="0.4592" style="stop-color:#3A789B"/>
			<stop  offset="0.6476" style="stop-color:#3F7EA1"/>
			<stop  offset="1" style="stop-color:#4080A3"/>
		</linearGradient>
		<path class="st1" d="M79.1,34.2c0,18.1-14.7,32.8-32.8,32.8c-18.1,0-32.9-14.7-32.9-32.8S28.1,1.4,46.3,1.4
			C64.4,1.4,79.1,16.1,79.1,34.2z"/>
		<g>
			<path class="st2" d="M51.2,1.7c-1.6-0.2-3.3-0.4-4.9-0.4c-4.8,0-9.4,1-13.5,2.9c-5.5,7.8-9.5,23.7,33.1,35.8
				C65.8,40,22.9,25.1,51.2,1.7z"/>
			<path class="st3" d="M25.4,8.8c-3.9,3.2-7,7.3-9.1,12c5.8,5.3,16.5,10.8,35.3,15.6C51.6,36.4,20.3,25.9,25.4,8.8z"/>
			<path class="st4" d="M73.9,45C47.2,33.8,27.1,31.9,13.4,32.8c0,0.5,0,0.9,0,1.4c0,3,0.4,5.8,1.1,8.6C41.6,34.4,73.9,45,73.9,45z"
				/>
		</g>
	</g>
	<g>
		<g>
			<path class="st0" d="M70.9,18.4l-4.9,0c-0.2,0-0.4-0.1-0.5-0.2c-0.1-0.1-0.2-0.3-0.2-0.5l0-5.6l-0.9,0l0,6.3
				c0,0.2-0.1,0.4-0.3,0.6c-0.6,0.3-0.9,0.7-1.2,1.2C62.3,21,62,22.3,62,24v0.2l-0.1,25.5c0.1,2.1,0.2,4.3,0.9,5.4
				c0.3,0.5,0.7,0.8,1.3,1c0.6,0.2,1.5,0.3,3,0.3l2.7,0H70c1.5,0,2.4-0.1,3.1-0.3c0.6-0.2,1-0.5,1.3-1c0.6-1.1,0.8-3.2,0.9-5.4
				L75.4,24c0-1.7-0.2-3-0.8-3.8C74,19,72.8,18.5,70.9,18.4z M71.4,23.2l0.4-0.1c0.3,0,0.5,0.1,0.7,0.3l0.1,0.4
				c0,0.2-0.2,0.5-0.4,0.6l-0.4,0.1c-0.3,0-0.6-0.1-0.7-0.3L71,23.8C71,23.5,71.2,23.3,71.4,23.2z M71.4,25.9l0.4-0.1
				c0.3,0,0.5,0.1,0.7,0.3l0.1,0.4c0,0.3-0.2,0.5-0.4,0.6l-0.4,0.1c-0.3,0-0.5-0.1-0.7-0.3L71,26.5C71,26.3,71.1,26.1,71.4,25.9z
				 M68.9,21.7c0.4,0,0.8,0.3,0.8,0.7c0,0.4-0.4,0.7-0.8,0.7c-0.4,0-0.8-0.3-0.8-0.7C68,22,68.4,21.7,68.9,21.7z M68.9,24.5
				c0.4,0,0.8,0.3,0.8,0.7c0,0.4-0.4,0.7-0.8,0.7S68,25.6,68,25.2C68,24.7,68.4,24.4,68.9,24.5z M68.8,27.2c0.4,0,0.8,0.3,0.8,0.7
				c0,0.4-0.4,0.7-0.8,0.7c-0.4,0-0.8-0.3-0.8-0.7C68,27.5,68.4,27.2,68.8,27.2z M65.2,23.4c0.2-0.2,0.4-0.3,0.7-0.3l0.4,0.1
				c0.3,0.1,0.4,0.3,0.4,0.6l-0.1,0.4c-0.2,0.2-0.4,0.3-0.7,0.3l-0.4-0.1c-0.3-0.1-0.4-0.4-0.4-0.6L65.2,23.4z M65.5,25.9l0.4-0.1
				c0.3,0,0.6,0.1,0.7,0.3l0.1,0.4c0,0.3-0.2,0.5-0.4,0.6l-0.4,0.1c-0.3,0-0.5-0.1-0.7-0.3l-0.1-0.4C65.1,26.3,65.2,26,65.5,25.9z
				 M66.3,48.4c0,0.4-0.3,0.7-0.7,0.7h-1c-0.4,0-0.7-0.3-0.7-0.7v-1.1c0-0.4,0.3-0.7,0.7-0.7h1c0.4,0,0.7,0.3,0.7,0.7V48.4z
				 M66.3,45.4c0,0.4-0.3,0.7-0.7,0.7h-1c-0.4,0-0.7-0.3-0.7-0.7v-1.1c0-0.4,0.3-0.7,0.7-0.7h1c0.4,0,0.7,0.3,0.7,0.7V45.4z
				 M66.3,42.4c0,0.4-0.3,0.7-0.7,0.7h-1c-0.4,0-0.7-0.3-0.7-0.7v-1.1c0-0.4,0.3-0.7,0.7-0.7h1c0.4,0,0.7,0.3,0.7,0.7V42.4z
				 M66.3,39.5c0,0.4-0.3,0.7-0.7,0.7h-1c-0.4,0-0.7-0.3-0.7-0.7v-1.1c0-0.4,0.3-0.7,0.7-0.7h1c0.4,0,0.7,0.3,0.7,0.7V39.5z
				 M69.9,48.4c0,0.4-0.3,0.7-0.7,0.7h-1c-0.4,0-0.7-0.3-0.7-0.7v-1.1c0-0.4,0.3-0.7,0.7-0.7h1c0.4,0,0.7,0.3,0.7,0.7V48.4z
				 M69.9,45.4c0,0.4-0.3,0.7-0.7,0.7h-1c-0.4,0-0.7-0.3-0.7-0.7v-1.1c0-0.4,0.3-0.7,0.7-0.7h1c0.4,0,0.7,0.3,0.7,0.7V45.4z
				 M69.9,42.4c0,0.4-0.3,0.7-0.7,0.7h-1c-0.4,0-0.7-0.3-0.7-0.7v-1.1c0-0.4,0.3-0.7,0.7-0.7h1c0.4,0,0.7,0.3,0.7,0.7V42.4z
				 M69.9,39.5c0,0.4-0.3,0.7-0.7,0.7h-1c-0.4,0-0.7-0.3-0.7-0.7v-1.1c0-0.4,0.3-0.7,0.7-0.7h1c0.4,0,0.7,0.3,0.7,0.7V39.5z
				 M73.6,48.4c0,0.4-0.3,0.7-0.7,0.7h-1c-0.4,0-0.7-0.3-0.7-0.7v-1.1c0-0.4,0.3-0.7,0.7-0.7h1c0.4,0,0.7,0.3,0.7,0.7V48.4z
				 M73.6,45.4c0,0.4-0.3,0.7-0.7,0.7h-1c-0.4,0-0.7-0.3-0.7-0.7v-1.1c0-0.4,0.3-0.7,0.7-0.7h1c0.4,0,0.7,0.3,0.7,0.7V45.4z
				 M73.6,42.4c0,0.4-0.3,0.7-0.7,0.7h-1c-0.4,0-0.7-0.3-0.7-0.7v-1.1c0-0.4,0.3-0.7,0.7-0.7h1c0.4,0,0.7,0.3,0.7,0.7V42.4z
				 M73.6,39.5c0,0.4-0.3,0.7-0.7,0.7h-1c-0.4,0-0.7-0.3-0.7-0.7v-1.1c0-0.4,0.3-0.7,0.7-0.7h1c0.4,0,0.7,0.3,0.7,0.7V39.5z
				 M74.1,33.5c0,0.4-0.3,0.7-0.7,0.7h-9.2c-0.4,0-0.7-0.3-0.7-0.7v-1.6c0-0.4,0.3-0.7,0.7-0.7h9.2c0.4,0,0.7,0.3,0.7,0.7V33.5z"/>
			<path d="M68.8,25.8c0.4,0,0.8-0.3,0.8-0.7c0-0.4-0.4-0.7-0.8-0.7c-0.4,0-0.8,0.3-0.8,0.7C68,25.6,68.4,25.8,68.8,25.8z"/>
			<path d="M68.8,28.6c0.4,0,0.8-0.3,0.8-0.7s-0.4-0.7-0.8-0.7c-0.4,0-0.8,0.3-0.8,0.7C68,28.3,68.4,28.6,68.8,28.6z"/>
			<path d="M68.9,23.1c0.4,0,0.8-0.3,0.8-0.7c0-0.4-0.4-0.7-0.8-0.7c-0.4,0-0.8,0.3-0.8,0.7C68,22.8,68.4,23.1,68.9,23.1z"/>
			<path d="M65.5,24.3l0.4,0.1c0.3,0,0.5-0.1,0.7-0.3l0.1-0.4c0-0.3-0.2-0.5-0.4-0.6l-0.4-0.1c-0.3,0-0.5,0.1-0.7,0.3l-0.1,0.4
				C65.1,24,65.2,24.2,65.5,24.3z"/>
			<path d="M71.8,24.5l0.4-0.1c0.3-0.1,0.4-0.3,0.4-0.6l-0.1-0.4c-0.2-0.2-0.4-0.3-0.7-0.3l-0.4,0.1c-0.3,0.1-0.4,0.3-0.4,0.6
				l0.1,0.4C71.3,24.3,71.5,24.5,71.8,24.5z"/>
			<path d="M65.9,27.2l0.4-0.1c0.3-0.1,0.4-0.3,0.4-0.6l-0.1-0.4c-0.2-0.2-0.4-0.3-0.7-0.3l-0.4,0.1c-0.3,0.1-0.4,0.3-0.4,0.6
				l0.1,0.4C65.3,27.1,65.6,27.2,65.9,27.2z"/>
			<path d="M71.8,27.2l0.4-0.1c0.3-0.1,0.4-0.3,0.4-0.6l-0.1-0.4c-0.2-0.2-0.4-0.3-0.7-0.3l-0.4,0.1C71.1,26,71,26.3,71,26.5
				l0.1,0.4C71.3,27.1,71.5,27.2,71.8,27.2z"/>
			<path d="M70.9,17.1l-4.3,0l0-5.7c0-0.3-0.3-0.6-0.7-0.6l-2.3,0c-0.2,0-0.3,0.1-0.5,0.2c-0.1,0.1-0.2,0.3-0.2,0.5l0,6.5
				c-0.6,0.4-1,0.8-1.3,1.4c-0.6,1.1-1,2.5-1,4.5l-0.1,25.7c0.1,2.7,0.3,4.7,1,6c0.5,0.8,1.1,1.3,2,1.6c0.8,0.2,1.8,0.4,3.3,0.4
				l2.7,0h0l0.4,0c1.6,0,2.6-0.1,3.3-0.4c1-0.3,1.6-0.8,2.1-1.6c0.7-1.2,1-3.3,1.1-6l0.1-25.5V24c0-2-0.3-3.4-0.9-4.5
				C74.9,17.9,73.3,17.1,70.9,17.1z M75.3,49.6c-0.1,2.2-0.3,4.3-0.9,5.4c-0.3,0.5-0.7,0.8-1.3,1c-0.6,0.2-1.6,0.3-3.1,0.3h-0.3
				l-2.7,0c-1.4,0-2.3-0.1-3-0.3c-0.6-0.2-1-0.5-1.3-1c-0.6-1.1-0.8-3.2-0.9-5.4L62,24.1v-0.2c0-1.7,0.3-3,0.8-3.8
				c0.3-0.5,0.6-0.8,1.2-1.2c0.2-0.1,0.3-0.3,0.3-0.6l0-6.3l0.9,0l0,5.6c0,0.2,0.1,0.4,0.2,0.5c0.1,0.1,0.3,0.2,0.5,0.2l4.9,0
				c1.9,0,3.1,0.6,3.8,1.8c0.5,0.9,0.8,2.2,0.8,3.8L75.3,49.6z"/>
			<path d="M65.7,37.7h-1c-0.4,0-0.7,0.3-0.7,0.7v1.1c0,0.4,0.3,0.7,0.7,0.7h1c0.4,0,0.7-0.3,0.7-0.7v-1.1
				C66.3,38,66,37.7,65.7,37.7z"/>
			<path d="M69.3,37.7h-1c-0.4,0-0.7,0.3-0.7,0.7v1.1c0,0.4,0.3,0.7,0.7,0.7h1c0.4,0,0.7-0.3,0.7-0.7v-1.1
				C69.9,38,69.6,37.7,69.3,37.7z"/>
			<path d="M72.9,37.7h-1c-0.4,0-0.7,0.3-0.7,0.7v1.1c0,0.4,0.3,0.7,0.7,0.7h1c0.4,0,0.7-0.3,0.7-0.7v-1.1
				C73.6,38,73.3,37.7,72.9,37.7z"/>
			<path d="M65.7,40.7h-1c-0.4,0-0.7,0.3-0.7,0.7v1.1c0,0.4,0.3,0.7,0.7,0.7h1c0.4,0,0.7-0.3,0.7-0.7v-1.1
				C66.3,41,66,40.7,65.7,40.7z"/>
			<path d="M69.3,40.7h-1c-0.4,0-0.7,0.3-0.7,0.7v1.1c0,0.4,0.3,0.7,0.7,0.7h1c0.4,0,0.7-0.3,0.7-0.7v-1.1
				C69.9,41,69.6,40.7,69.3,40.7z"/>
			<path d="M72.9,40.7h-1c-0.4,0-0.7,0.3-0.7,0.7v1.1c0,0.4,0.3,0.7,0.7,0.7h1c0.4,0,0.7-0.3,0.7-0.7v-1.1
				C73.6,41,73.3,40.7,72.9,40.7z"/>
			<path d="M65.7,43.7h-1c-0.4,0-0.7,0.3-0.7,0.7v1.1c0,0.4,0.3,0.7,0.7,0.7h1c0.4,0,0.7-0.3,0.7-0.7v-1.1
				C66.3,44,66,43.7,65.7,43.7z"/>
			<path d="M69.3,43.7h-1c-0.4,0-0.7,0.3-0.7,0.7v1.1c0,0.4,0.3,0.7,0.7,0.7h1c0.4,0,0.7-0.3,0.7-0.7v-1.1
				C69.9,44,69.6,43.7,69.3,43.7z"/>
			<path d="M72.9,43.7h-1c-0.4,0-0.7,0.3-0.7,0.7v1.1c0,0.4,0.3,0.7,0.7,0.7h1c0.4,0,0.7-0.3,0.7-0.7v-1.1
				C73.6,44,73.3,43.7,72.9,43.7z"/>
			<path d="M65.7,46.7h-1c-0.4,0-0.7,0.3-0.7,0.7v1.1c0,0.4,0.3,0.7,0.7,0.7h1c0.4,0,0.7-0.3,0.7-0.7v-1.1
				C66.3,47,66,46.7,65.7,46.7z"/>
			<path d="M69.3,46.7h-1c-0.4,0-0.7,0.3-0.7,0.7v1.1c0,0.4,0.3,0.7,0.7,0.7h1c0.4,0,0.7-0.3,0.7-0.7v-1.1
				C69.9,47,69.6,46.7,69.3,46.7z"/>
			<path d="M72.9,46.7h-1c-0.4,0-0.7,0.3-0.7,0.7v1.1c0,0.4,0.3,0.7,0.7,0.7h1c0.4,0,0.7-0.3,0.7-0.7v-1.1
				C73.6,47,73.3,46.7,72.9,46.7z"/>
			<path d="M73.4,31.2h-9.2c-0.4,0-0.7,0.3-0.7,0.7v1.6c0,0.4,0.3,0.7,0.7,0.7h9.2c0.4,0,0.7-0.3,0.7-0.7v-1.6
				C74.1,31.5,73.8,31.2,73.4,31.2z"/>
		</g>
		<g>
			<path class="st0" d="M25.9,18.5l-4.9,0c-0.2,0-0.4-0.1-0.5-0.2c-0.1-0.1-0.2-0.3-0.2-0.5l0-5.6l-0.9,0l0,6.3
				c0,0.2-0.1,0.4-0.3,0.6c-0.6,0.3-0.9,0.7-1.2,1.2c-0.5,0.8-0.8,2.1-0.8,3.8v0.2l-0.1,25.5c0.1,2.1,0.2,4.3,0.9,5.4
				c0.3,0.5,0.7,0.8,1.3,1c0.6,0.2,1.5,0.3,2.9,0.3l2.7,0H25c1.5,0,2.4-0.1,3.1-0.3c0.6-0.2,1-0.5,1.3-1c0.6-1.1,0.8-3.2,0.9-5.4
				l0.1-25.6c0-1.7-0.2-3-0.8-3.8C29,19.1,27.8,18.6,25.9,18.5z M26.4,23.3l0.4-0.1c0.3,0,0.5,0.1,0.7,0.3l0.1,0.4
				c0,0.2-0.2,0.5-0.4,0.6l-0.4,0.1c-0.3,0-0.6-0.1-0.7-0.3l-0.1-0.4C25.9,23.6,26.1,23.4,26.4,23.3z M26.3,26l0.4-0.1
				c0.3,0,0.5,0.1,0.7,0.3l0.1,0.4c0,0.3-0.2,0.5-0.4,0.6l-0.4,0.1c-0.3,0-0.5-0.1-0.7-0.3l-0.1-0.4C25.9,26.4,26.1,26.2,26.3,26z
				 M23.8,21.8c0.4,0,0.8,0.3,0.8,0.7c0,0.4-0.4,0.7-0.8,0.7c-0.4,0-0.8-0.3-0.8-0.7C23,22.1,23.4,21.8,23.8,21.8z M23.8,24.6
				c0.4,0,0.8,0.3,0.8,0.7c0,0.4-0.4,0.7-0.8,0.7S23,25.7,23,25.3C23,24.8,23.4,24.6,23.8,24.6z M23.8,27.3c0.4,0,0.8,0.3,0.8,0.7
				c0,0.4-0.4,0.7-0.8,0.7c-0.4,0-0.8-0.3-0.8-0.7C23,27.6,23.3,27.3,23.8,27.3z M20.1,23.5c0.2-0.2,0.4-0.3,0.7-0.3l0.4,0.1
				c0.3,0.1,0.4,0.3,0.4,0.6l-0.1,0.4c-0.2,0.2-0.4,0.3-0.7,0.3l-0.4-0.1c-0.3-0.1-0.4-0.4-0.4-0.6L20.1,23.5z M20.4,26l0.4-0.1
				c0.3,0,0.6,0.1,0.7,0.3l0.1,0.4c0,0.3-0.2,0.5-0.4,0.6l-0.4,0.1c-0.3,0-0.5-0.1-0.7-0.3L20,26.6C20,26.4,20.2,26.1,20.4,26z
				 M21.3,48.5c0,0.4-0.3,0.7-0.7,0.7h-1c-0.4,0-0.7-0.3-0.7-0.7v-1.1c0-0.4,0.3-0.7,0.7-0.7h1c0.4,0,0.7,0.3,0.7,0.7V48.5z
				 M21.3,45.5c0,0.4-0.3,0.7-0.7,0.7h-1c-0.4,0-0.7-0.3-0.7-0.7v-1.1c0-0.4,0.3-0.7,0.7-0.7h1c0.4,0,0.7,0.3,0.7,0.7V45.5z
				 M21.3,42.5c0,0.4-0.3,0.7-0.7,0.7h-1c-0.4,0-0.7-0.3-0.7-0.7v-1.1c0-0.4,0.3-0.7,0.7-0.7h1c0.4,0,0.7,0.3,0.7,0.7V42.5z
				 M21.3,39.6c0,0.4-0.3,0.7-0.7,0.7h-1c-0.4,0-0.7-0.3-0.7-0.7v-1.1c0-0.4,0.3-0.7,0.7-0.7h1c0.4,0,0.7,0.3,0.7,0.7V39.6z
				 M24.9,48.5c0,0.4-0.3,0.7-0.7,0.7h-1c-0.4,0-0.7-0.3-0.7-0.7v-1.1c0-0.4,0.3-0.7,0.7-0.7h1c0.4,0,0.7,0.3,0.7,0.7V48.5z
				 M24.9,45.5c0,0.4-0.3,0.7-0.7,0.7h-1c-0.4,0-0.7-0.3-0.7-0.7v-1.1c0-0.4,0.3-0.7,0.7-0.7h1c0.4,0,0.7,0.3,0.7,0.7V45.5z
				 M24.9,42.5c0,0.4-0.3,0.7-0.7,0.7h-1c-0.4,0-0.7-0.3-0.7-0.7v-1.1c0-0.4,0.3-0.7,0.7-0.7h1c0.4,0,0.7,0.3,0.7,0.7V42.5z
				 M24.9,39.6c0,0.4-0.3,0.7-0.7,0.7h-1c-0.4,0-0.7-0.3-0.7-0.7v-1.1c0-0.4,0.3-0.7,0.7-0.7h1c0.4,0,0.7,0.3,0.7,0.7V39.6z
				 M28.5,48.5c0,0.4-0.3,0.7-0.7,0.7h-1c-0.4,0-0.7-0.3-0.7-0.7v-1.1c0-0.4,0.3-0.7,0.7-0.7h1c0.4,0,0.7,0.3,0.7,0.7V48.5z
				 M28.5,45.5c0,0.4-0.3,0.7-0.7,0.7h-1c-0.4,0-0.7-0.3-0.7-0.7v-1.1c0-0.4,0.3-0.7,0.7-0.7h1c0.4,0,0.7,0.3,0.7,0.7V45.5z
				 M28.5,42.5c0,0.4-0.3,0.7-0.7,0.7h-1c-0.4,0-0.7-0.3-0.7-0.7v-1.1c0-0.4,0.3-0.7,0.7-0.7h1c0.4,0,0.7,0.3,0.7,0.7V42.5z
				 M28.5,39.6c0,0.4-0.3,0.7-0.7,0.7h-1c-0.4,0-0.7-0.3-0.7-0.7v-1.1c0-0.4,0.3-0.7,0.7-0.7h1c0.4,0,0.7,0.3,0.7,0.7V39.6z
				 M29,33.6c0,0.4-0.3,0.7-0.7,0.7h-9.2c-0.4,0-0.7-0.3-0.7-0.7V32c0-0.4,0.3-0.7,0.7-0.7h9.2c0.4,0,0.7,0.3,0.7,0.7V33.6z"/>
			<path d="M23.8,25.9c0.4,0,0.8-0.3,0.8-0.7c0-0.4-0.4-0.7-0.8-0.7c-0.4,0-0.8,0.3-0.8,0.7C23,25.7,23.4,25.9,23.8,25.9z"/>
			<path d="M23.8,28.7c0.4,0,0.8-0.3,0.8-0.7c0-0.4-0.4-0.7-0.8-0.7c-0.4,0-0.8,0.3-0.8,0.7C23,28.4,23.3,28.7,23.8,28.7z"/>
			<path d="M23.8,23.2c0.4,0,0.8-0.3,0.8-0.7c0-0.4-0.4-0.7-0.8-0.7c-0.4,0-0.8,0.3-0.8,0.7C23,22.9,23.4,23.2,23.8,23.2z"/>
			<path d="M20.4,24.5l0.4,0.1c0.3,0,0.5-0.1,0.7-0.3l0.1-0.4c0-0.3-0.2-0.5-0.4-0.6l-0.4-0.1c-0.3,0-0.5,0.1-0.7,0.3L20,23.9
				C20,24.1,20.2,24.3,20.4,24.5z"/>
			<path d="M26.8,24.6l0.4-0.1c0.3-0.1,0.4-0.3,0.4-0.6l-0.1-0.4c-0.2-0.2-0.4-0.3-0.7-0.3l-0.4,0.1c-0.3,0.1-0.4,0.3-0.4,0.6
				l0.1,0.4C26.2,24.5,26.5,24.6,26.8,24.6z"/>
			<path d="M20.8,27.3l0.4-0.1c0.3-0.1,0.4-0.3,0.4-0.6l-0.1-0.4c-0.2-0.2-0.4-0.3-0.7-0.3L20.4,26c-0.3,0.1-0.4,0.3-0.4,0.6
				l0.1,0.4C20.3,27.2,20.5,27.3,20.8,27.3z"/>
			<path d="M26.7,27.3l0.4-0.1c0.3-0.1,0.4-0.3,0.4-0.6l-0.1-0.4C27.3,26.1,27,26,26.7,26L26.4,26c-0.3,0.1-0.4,0.3-0.4,0.6l0.1,0.4
				C26.2,27.2,26.5,27.3,26.7,27.3z"/>
			<path d="M25.9,17.2l-4.3,0l0-5.7c0-0.3-0.3-0.6-0.7-0.6l-2.3,0c-0.2,0-0.3,0.1-0.5,0.2c-0.1,0.1-0.2,0.3-0.2,0.5l0,6.5
				c-0.6,0.4-1,0.8-1.3,1.4c-0.7,1.1-1,2.5-1,4.5l-0.1,25.7c0.1,2.7,0.3,4.7,1,6c0.5,0.8,1.1,1.3,2,1.6c0.8,0.2,1.8,0.4,3.3,0.4
				l2.7,0h0l0.4,0c1.6,0,2.6-0.1,3.3-0.4c1-0.3,1.6-0.8,2.1-1.6c0.7-1.2,1-3.3,1.1-6l0.1-25.5v-0.2c0-2-0.3-3.4-0.9-4.5
				C29.9,18,28.3,17.2,25.9,17.2z M30.3,49.7c-0.1,2.2-0.3,4.3-0.9,5.4c-0.3,0.5-0.7,0.8-1.3,1c-0.6,0.2-1.6,0.3-3.1,0.3h-0.3
				l-2.7,0c-1.4,0-2.3-0.1-2.9-0.3c-0.6-0.2-1-0.5-1.3-1c-0.6-1.1-0.8-3.2-0.9-5.4L17,24.2V24c0-1.7,0.3-3,0.8-3.8
				c0.3-0.5,0.6-0.8,1.2-1.2c0.2-0.1,0.3-0.3,0.3-0.6l0-6.3l0.9,0l0,5.6c0,0.2,0.1,0.4,0.2,0.5c0.1,0.1,0.3,0.2,0.5,0.2l4.9,0
				c1.9,0,3.1,0.6,3.8,1.8c0.5,0.9,0.8,2.2,0.8,3.8L30.3,49.7z"/>
			<path d="M20.6,37.8h-1c-0.4,0-0.7,0.3-0.7,0.7v1.1c0,0.4,0.3,0.7,0.7,0.7h1c0.4,0,0.7-0.3,0.7-0.7v-1.1
				C21.3,38.1,21,37.8,20.6,37.8z"/>
			<path d="M24.2,37.8h-1c-0.4,0-0.7,0.3-0.7,0.7v1.1c0,0.4,0.3,0.7,0.7,0.7h1c0.4,0,0.7-0.3,0.7-0.7v-1.1
				C24.9,38.1,24.6,37.8,24.2,37.8z"/>
			<path d="M27.9,37.8h-1c-0.4,0-0.7,0.3-0.7,0.7v1.1c0,0.4,0.3,0.7,0.7,0.7h1c0.4,0,0.7-0.3,0.7-0.7v-1.1
				C28.5,38.1,28.2,37.8,27.9,37.8z"/>
			<path d="M20.6,40.8h-1c-0.4,0-0.7,0.3-0.7,0.7v1.1c0,0.4,0.3,0.7,0.7,0.7h1c0.4,0,0.7-0.3,0.7-0.7v-1.1
				C21.3,41.1,21,40.8,20.6,40.8z"/>
			<path d="M24.2,40.8h-1c-0.4,0-0.7,0.3-0.7,0.7v1.1c0,0.4,0.3,0.7,0.7,0.7h1c0.4,0,0.7-0.3,0.7-0.7v-1.1
				C24.9,41.1,24.6,40.8,24.2,40.8z"/>
			<path d="M27.9,40.8h-1c-0.4,0-0.7,0.3-0.7,0.7v1.1c0,0.4,0.3,0.7,0.7,0.7h1c0.4,0,0.7-0.3,0.7-0.7v-1.1
				C28.5,41.1,28.2,40.8,27.9,40.8z"/>
			<path d="M20.6,43.8h-1c-0.4,0-0.7,0.3-0.7,0.7v1.1c0,0.4,0.3,0.7,0.7,0.7h1c0.4,0,0.7-0.3,0.7-0.7v-1.1
				C21.3,44.1,21,43.8,20.6,43.8z"/>
			<path d="M24.2,43.8h-1c-0.4,0-0.7,0.3-0.7,0.7v1.1c0,0.4,0.3,0.7,0.7,0.7h1c0.4,0,0.7-0.3,0.7-0.7v-1.1
				C24.9,44.1,24.6,43.8,24.2,43.8z"/>
			<path d="M27.9,43.8h-1c-0.4,0-0.7,0.3-0.7,0.7v1.1c0,0.4,0.3,0.7,0.7,0.7h1c0.4,0,0.7-0.3,0.7-0.7v-1.1
				C28.5,44.1,28.2,43.8,27.9,43.8z"/>
			<path d="M20.6,46.8h-1c-0.4,0-0.7,0.3-0.7,0.7v1.1c0,0.4,0.3,0.7,0.7,0.7h1c0.4,0,0.7-0.3,0.7-0.7v-1.1
				C21.3,47.1,21,46.8,20.6,46.8z"/>
			<path d="M24.2,46.8h-1c-0.4,0-0.7,0.3-0.7,0.7v1.1c0,0.4,0.3,0.7,0.7,0.7h1c0.4,0,0.7-0.3,0.7-0.7v-1.1
				C24.9,47.1,24.6,46.8,24.2,46.8z"/>
			<path d="M27.9,46.8h-1c-0.4,0-0.7,0.3-0.7,0.7v1.1c0,0.4,0.3,0.7,0.7,0.7h1c0.4,0,0.7-0.3,0.7-0.7v-1.1
				C28.5,47.1,28.2,46.8,27.9,46.8z"/>
			<path d="M28.3,31.3h-9.2c-0.4,0-0.7,0.3-0.7,0.7v1.6c0,0.4,0.3,0.7,0.7,0.7h9.2c0.4,0,0.7-0.3,0.7-0.7V32
				C29,31.6,28.7,31.3,28.3,31.3z"/>
		</g>
	</g>
</g>
</svg>
