<?xml version="1.0" encoding="utf-8"?>
<!-- Generator: Adobe Illustrator 28.1.0, SVG Export Plug-In . SVG Version: 6.00 Build 0)  -->
<svg version="1.1" id="Layer_1" xmlns="http://www.w3.org/2000/svg" xmlns:xlink="http://www.w3.org/1999/xlink" x="0px" y="0px"
	 viewBox="0 0 388.2 1080" style="enable-background:new 0 0 388.2 1080;" xml:space="preserve">
<style type="text/css">
	.st0{fill:#FFFFFF;}
	.st1{fill:#dfdfdf;}
</style>
<path class="st0" d="M388.2,1v136.4l-4.4,4.3l-332.6,324c-20.4,19.8-31.6,45.7-31.6,72.9c0,27.2,11.2,53,31.6,72.9l337,328.3V1080"
	/>
<path class="st1" d="M388.2,1080h-19V943.6L43.7,618.1c-21.6-21.6-33.5-49.9-33.5-79.6s11.9-58,33.5-79.6l325.5-325.5V1h19v140.3l-7.1,7.1
	l-324,324c-18,18-28,41.5-28,66.2s9.9,48.1,28,66.2l331.1,331.1V1080z"/>
</svg>
