<?xml version="1.0" encoding="utf-8"?>
<!-- Generator: Adobe Illustrator 28.1.0, SVG Export Plug-In . SVG Version: 6.00 Build 0)  -->
<svg version="1.1" id="Layer_1" xmlns="http://www.w3.org/2000/svg" xmlns:xlink="http://www.w3.org/1999/xlink" x="0px" y="0px"
	 viewBox="0 0 70 70" style="enable-background:new 0 0 70 70;" xml:space="preserve">
<style type="text/css">
	.st0{fill:url(#SVGID_1_);}
	.st1{fill:none;stroke:#000000;stroke-width:0.5;stroke-miterlimit:10;}
</style>
<g>
	<g>
		
			<linearGradient id="SVGID_1_" gradientUnits="userSpaceOnUse" x1="35.0295" y1="17.3236" x2="35.0295" y2="61.5894" gradientTransform="matrix(1 0 0 -1 0 72)">
			<stop  offset="0" style="stop-color:#D8672A"/>
			<stop  offset="1" style="stop-color:#E39368"/>
		</linearGradient>
		<rect x="2.3" y="10.4" class="st0" width="65.6" height="44.3"/>
		<g>
			<path d="M22.5,24.3h3.7v4.2h4v-4.2H34v12h-3.7v-4.9h-4v4.9h-3.7V24.3z"/>
			<path d="M36.5,24.3H42c1.1,0,2,0.1,2.6,0.4c0.7,0.3,1.2,0.7,1.7,1.3c0.4,0.6,0.8,1.2,0.9,1.9c0.2,0.7,0.3,1.5,0.3,2.3
				c0,1.3-0.1,2.3-0.4,3s-0.7,1.3-1.2,1.8c-0.5,0.5-1.1,0.8-1.7,1c-0.8,0.2-1.5,0.3-2.2,0.3h-5.5V24.3z M40.2,27.1v6.6h0.9
				c0.8,0,1.3-0.1,1.7-0.3c0.3-0.2,0.6-0.5,0.8-0.9c0.2-0.4,0.3-1.1,0.3-2.1c0-1.3-0.2-2.1-0.6-2.6c-0.4-0.5-1.1-0.7-2.1-0.7H40.2z"
				/>
		</g>
		<path d="M64.9,7.8H5.1C2.3,7.8,0,10.1,0,12.9v39.5c0,2.8,2.3,5.1,5.1,5.1h26.5v2.1H19.3c-1.1,0-2,0.1-2,0.2V62
			c0,0.1,0.9,0.2,2,0.2h31.3c1.1,0,2-0.1,2-0.2v-2.1c0-0.1-0.9-0.2-2-0.2H38.4v-2.1h26.5c2.8,0,5.1-2.3,5.1-5.1V12.9
			C70,10.1,67.7,7.8,64.9,7.8z M57.3,54.7c-1.1,0-1.9-0.5-1.9-1.2s0.9-1.2,1.9-1.2c1.1,0,1.9,0.5,1.9,1.2
			C59.2,54.1,58.3,54.7,57.3,54.7z M62.4,54.7c-1.1,0-1.9-0.5-1.9-1.2s0.9-1.2,1.9-1.2c1.1,0,1.9,0.5,1.9,1.2
			C64.3,54.1,63.4,54.7,62.4,54.7z M67.4,50.2H2.6V12.9c0-1.4,1.1-2.5,2.5-2.5h59.8c1.4,0,2.5,1.1,2.5,2.5V50.2z"/>
		<circle class="st1" cx="35" cy="30.3" r="17.6"/>
	</g>
</g>
</svg>
